
<svg version="1.1" id="Main" xmlns="http://www.w3.org/2000/svg" x="0" y="0" viewBox="0 0 544.9 672.2" xml:space="preserve"><style>.st1{fill:none;stroke:#f9d3ba;stroke-width:45;stroke-miterlimit:10}.st4{fill:#f9d3ba}.st5{fill:none;stroke:#f9d3ba;stroke-width:13;stroke-linecap:round;stroke-linejoin:round;stroke-miterlimit:10}.st8{fill:#86249b}.st9{fill:#9c27b0}.st10{fill:#fff}.st11{fill:#ff9800}.st14{fill:#282828}.st15{fill:#6b4a3a}.st16{fill:#5b3b2f}.st18{fill:#7f5849}.st20{fill:none;stroke:#000;stroke-width:2.2318;stroke-miterlimit:10}.st24{fill:#ddd}.st28{fill:#efbab4}.st34{fill:#727272}.st38{fill:#4f4f4f}</style><ellipse cx="253.2" cy="653.9" rx="253.2" ry="18.4" fill="#efeded"/><path class="st1" d="M340.5 227.5c-1 12.1-5.4 26.4-16.4 42.1-14.7 21.2-44.7 25.4-64 8.3-.4-.4-.9-.8-1.3-1.2"/><path d="M247.2 282.1s-25.5.8-19.8 13.5" fill="none" stroke="#e1b79e" stroke-width="13" stroke-linecap="round" stroke-linejoin="round" stroke-miterlimit="10"/><path d="M266.5 269S239 236.7 232 254.2m31 19.7s-38.3-16.7-36.7 4.9" stroke="#eec5aa" stroke-width="13" stroke-linecap="round" stroke-linejoin="round" fill="none" stroke-miterlimit="10"/><ellipse transform="rotate(-50.848 257.712 275.083)" class="st4" cx="257.7" cy="275.1" rx="23" ry="23"/><path class="st5" d="M268.7 263.7s11.8-18.6-5.9-18.2"/><path d="M360 395.4v243.4h37.6V411.6c1.7.1-37.6-16.2-37.6-16.2z" fill="#252626"/><path d="M332.4 293.3v61.8c0 38 30.8 68.8 68.8 68.8 1.8 0 3.6-.1 5.3-.2v224h38.1V408.5c15.5-12.6 25.3-31.8 25.3-53.3v-61.8H332.4z" fill="#3f3f3f"/><path class="st8" d="M357.2 259.6L309 233.8l20.3-37.9c7.1-13.3 23.7-18.3 37-11.2 13.3 7.1 18.3 23.7 11.2 37l-20.3 37.9z"/><path class="st8" d="M352.2 265.5L306.6 241c-2.6-1.4-3.5-4.6-2.2-7.2 1.4-2.6 4.6-3.5 7.2-2.2l45.6 24.5c2.6 1.4 3.5 4.6 2.2 7.2-1.4 2.6-4.6 3.6-7.2 2.2z"/><path class="st9" d="M472.9 371.5H330.7V253.4c0-39.3 31.8-71.1 71.1-71.1s71.1 31.8 71.1 71.1v118.1z"/><path class="st10" d="M351.5 229.8H366c3.5 0 6.2.9 7.9 2.4 1.8 1.6 2.6 3.6 2.6 6.1 0 3.3-2.1 5.5-5.1 6.5v.1c3.6 1 6.1 4.1 6.1 8.1 0 3.1-1 5.1-2.9 6.8-1.9 1.6-4.7 2.6-8.2 2.6h-14.9v-32.6zm13.7 12.4c2.9 0 4.8-1.3 4.8-3.7 0-2.3-1.8-3.6-4.7-3.6H358v7.3h7.2zm-7.1 14.8h7.6c3.2 0 5.1-1.9 5.1-4.7 0-3.3-2.3-4.9-5.3-4.9h-7.4v9.6z"/><circle class="st10" cx="380.6" cy="259.8" r="3.2"/><path class="st10" d="M453.8 325.7l-30.9 16.8-33.4-52.4 38.7-21z"/><path class="st10" d="M448.6 311.4l-34.8 18.8-17.1-26.8 38.7-21.1z"/><path transform="rotate(-28.466 407.677 277.086)" class="st11" d="M380.7 273.9h54.1v6.3h-54.1z"/><path class="st11" d="M424.3 265.1l-36.4 19.7-1.5-6.3 33.4-18.1z"/><path d="M414.8 329.7l32.8-17.8 1 2.1-32.8 17.3zm-17.2-26.9l36.9-19.9-1.3-2.9-37.2 20.4z" fill="#dfdfdf"/><path class="st1" d="M479.4 219.8c8.6 8.6 16.7 21.1 21.6 39.6 6.7 24.9-9.4 50.6-34.9 54.3-.6.1-1.2.2-1.7.2"/><path class="st8" d="M507.8 216.4l-44.5 31.8-25-35c-8.8-12.3-5.9-29.4 6.4-38.1 12.3-8.8 29.4-5.9 38.1 6.4l25 34.9z"/><path class="st9" d="M509.6 214.5l-44.5 31.8-25-35c-8.8-12.3-5.9-29.4 6.4-38.1 12.3-8.8 29.4-5.9 38.1 6.4l25 34.9z"/><path class="st8" d="M512.7 221.5l-42.1 30.1c-2.4 1.7-5.7 1.1-7.4-1.2-1.7-2.4-1.1-5.7 1.2-7.4l42.1-30.1c2.4-1.7 5.7-1.1 7.4 1.2 1.7 2.4 1.1 5.7-1.2 7.4z"/><ellipse transform="rotate(-10.691 462.36 313.687)" class="st4" cx="462.3" cy="313.7" rx="23" ry="23"/><path class="st5" d="M460.4 298.8s-.2-22-14.8-12.1m22.9 14.4s-36.7 11.5-41.2-4.2m34.1 17.7s-39.6 12.9-43.3-1m45.2 8.3s-21.9 19.7-33.7 14.4"/><ellipse class="st4" cx="402.4" cy="189.3" rx="29.3" ry="18.1"/><path class="st4" d="M403 193.6c-38 0-68.8-30.8-68.8-68.8V85.9c0-38 30.8-68.8 68.8-68.8s68.8 30.8 68.8 68.8v38.9c0 38-30.8 68.8-68.8 68.8z"/><path d="M334.2 126.4c3.4 1.4 7.2 2.2 11.2 2.2 16.4 0 29.8-13.3 29.8-29.8h-1.5c-.1.4-.2.9-.3 1.3-5.4 16.9-24.7 22-39.1 17.1M444 98.8c-.3 2.3-1.2 4.6-2.7 6.5-.9 1.2-1.8 2.3-2.8 3.4-.6.9-1.2 1.8-1.9 2.7-1 1.2-2.5 2.3-4.1 3-5.2 3.9-11.2 6.2-18.8 5.3-7-.8-12.8-4-17.3-8.7-1.9-1-3.5-2.3-4.7-4.2-.6-1-1-2.1-1.2-3.2-.1-.1-.2-.2-.2-.4-.8-1.4-1.3-2.9-1.6-4.4h-2.2c0 16.4 13.3 29.8 29.8 29.8 16.4 0 29.8-13.3 29.8-29.8H444z" opacity=".6" fill="#ddbca6"/><circle class="st14" cx="347.9" cy="105.2" r="8.5"/><circle class="st10" cx="344.3" cy="110" r="2.9"/><path class="st4" d="M347.7 119.2l-7-1.5-1.7-8.1h21.4c0 .1-4.8 7.8-12.7 9.6z"/><circle class="st14" cx="412.1" cy="105.2" r="8.5"/><path class="st15" d="M470.5 105.1c1.9-.1 2.7-1.5 2.1-3.3-.5-1.6-2.5-4.3-4-5.6-.1-.1-.2-.2-.3-.2-.1-.1-.2-.1-.2-.2-.7-.6-1.7-.9-2.7-.9-2.5 0-4.5 1.9-4.5 4.3V135c0 7.8-6.4 14.1-14.4 14.1h-19.7c-4.1 0-7.4-3.3-7.4-7.3s-3.3-7.3-7.4-7.3h-72.4c-2.3 0-4.3 1.3-5.3 3.2-3.3 4.8-4.6 11.6-4.8 16.6-.1 1.6 0 4.3 1.5 5.5 1.2 1 4.1 1.1 4.3-.4-.7 2-1.4 4.1-.9 6.2.5 2 2.7 3.8 4.7 3-.5 2.9-1.1 4.9-.9 7.6.1 2.8 2.7 4.4 3.5 4.7 3.3 1.2 7.7.4 10.1-.5-1.1 2.7.8 8.7 3.4 10.2.8.4 5.7 4.7 12.5-2.2-1.9 4.1.4 7.1 2.6 9.1 1.1 1 2.5 1.5 3.9 1.6 7.1.3 10-4.3 12.1-8.8-.5 3.7-.8 8.9 4.9 10.5 7.4 2 17.5.3 28-11.1-.9 2.1-.3 3.7 1.8 4.9.8.5 2.8.6 3.7.5 6.4-.3 13.5-3.1 17.8-10.2-.6 1.4.4 3.1 1.8 3.8 1.4.6 3 .5 4.5.1 10.7-2.5 18.2-20.7 16-31.5 1.8 1.2 4.3.2 4.8-1.9.9-3.8 1-8-.3-11.5.9 1.2 2.6 1.4 3.4.1.8-1.3.7-2.7.5-4.1-.7-4.4-1.5-9.1-2.7-13.4.2.9 2.6 1.3 3.8-.7 1.6-3.1-1.9-14.2-3.8-20.7z"/><path class="st16" d="M470.5 105.1c1.9-.1 2.7-1.5 2.1-3.3-.5-1.6-2.5-4.3-4-5.6-.1-.1-.2-.2-.3-.2-.1-.1-.2-.1-.2-.2-.7-.6-1.7-.9-2.7-.9-3.8.4-3.5 3.8-4 4 4.2-2.7 6-.5 6.6.7.9 1.7-.3 3.8-.3 3.8 8.2 20.6-1.7 18.1-1.7 18.1 6.8 16.7-.6 15.5-.6 15.5 3.3 13-3.5 16.5-3.5 16.5.4 1.3.6 5.6.6 7.1 0 3.6-.2 7-1.1 9.4-4.7 12.5-11 16.7-14.5 16.1-3.1-.5-3.6-5.3-3.6-5.3-24 20.6-21.8 4.9-21.8 4.9-31.4 24.2-34.2.3-34.2.3-4.5 8.7-9.6 10-9.6 10-11.7 2.6-5-15.1-5-15.1-1.3.9-6.5 2.7-6.5 2.7-11.9 3.2-10.5-8-10.5-8-2.2.9-5.5 2.4-5.5 2.4-14.7 6.1-7.5-14.2-7.5-14.2-6.1 4.2-7.3-5.1-7.3-5.1-5.3 4.8-.1-21.1 3.4-23.9-2.1.1-4 1.3-4.9 3.1-3.3 4.8-6.9 12-7.1 17-.1 1.6 0 5.9 2.2 7.7 1.2 1 4.1 1.1 4.8-.9-.7 2-1.2 2.7-.7 4.8.5 2 3.5 2.9 5.5 2.1-.5 2.9-1.1 4.9-.9 7.6.1 2.8 2.7 4.4 3.5 4.7 3.3 1.2 7.7.4 10.1-.5-1.1 2.7.8 8.7 3.4 10.2.8.4 5.7 4.7 12.5-2.2-2.3 2.7-1.1 8.9.9 11.2 1.5 1.7 3.9 1.9 6.8 1.9 6.5-.1 8.8-6.7 11-11.2-.5 3.7-.8 8.9 4.9 10.5 7.4 2 17.5.3 28-11.1-.9 2.1-.7 5.9 1.4 7.1.8.5 2.8.6 3.7.5 6.4-.3 15.8-3.3 17.9-11.9-.6 1.4.7 3.2 2.1 3.9 1.4.6 3.7.7 5.2.3 10.7-2.5 17.9-21.4 15.6-32.2 0 0 4.4 2.1 5.4-1.3 1.2-3.8.2-8.7-1.1-12.1.9 1.2 2.6 1.4 3.4.1.8-1.3.6-2.7.5-4.1-.3-4.4-.5-3.5-1-7.5.2.9 3 1.6 4.1-.3 1.9-3.2-3.6-20.6-5.5-27.1z"/><ellipse transform="rotate(-45.001 408.512 109.678)" class="st10" cx="408.5" cy="109.7" rx="2.9" ry="2.9"/><path class="st4" d="M430.2 118.4l-15.1 1.8-11.2-3.8-1.2-6.7h27.5z"/><path d="M462.9 14.4c-.1 0-.2 0-.3-.1 0 0 .1.1.3.2v-.1z" fill="#933a43"/><path class="st15" d="M470 80.8c.2 0 .3 0 .4.1.2 0 0-.1.2-.2-2.8-9.9-6-14.1-6-14.1 3.3 1.9 6.5-1.2 6.5-1.2 0-9.3-8.8-19-8.8-19 2.9 2.1 13.3 2.2 17.7 1.1 5.4-1.2 2.5-8.6-2.8-10.2-9.4-2.9-24.7-3.7-24.7-3.7 3.3-6.5 10.5-10.2 10.5-10.2s.1 0 .1-.1c1.9-1.2 2.7-3.9 1.2-5.6-3.3-3.8-8.1 1.2-12.6 4.2 3.4-4.9 9.2-12.8 2.5-17.9-.4-.3-.9-.6-1.5-.8-2.9-.9-5.1.9-6.7 2.9-2.6 3.2-3.9 11.5-3.6 12.3-7.6-8.4-14.2-14.7-24.2-18-7.4-2.5-14.2 5.1-11 12.2l.1.1c-9.7-1.8-19.6-5-29.5-6.5-5.5-.9-9.7 4.9-7.2 9.9-8.6.9-18.6 0-26.7 2.5-3.8 1.2-14.1 3.1-12.4 11.1.8 3.9 6.8 4.4 8.2 4.6-4.7 4.5-9.4 9.2-12.7 14.8-.8 1.4-1.6 2.9-2.2 4.4-2.7 6.7 4.8 13 11.1 9.4 1.3-.7 2.5-1.5 3.7-2.3-.8 2.5-2.7 7 .5 8.7 2 1.1 5.3.3 6 0 4.4-2 5.5-2.9 10.4-9.4-2.1 2.6.4 8.2 2.8 8.9 5.2 1.3 7.3-.1 9.3-1.3 9.7-5.7 16-15.7 25.7-21.4 0 .1-.1.3-.1.4-2.1 7.8 6.8 13.9 13.4 9.1 7.3-5.3 13.4-12.4 17.4-20.4.7 2.4 3.3 3.6 5.6 2.7 3.8-1.4 7.1-4.1 9.2-7.5-1.5 5.6-1.9 11.6-1.1 17.4.2 1.4.5 2.9 1.4 4 2.3 2.9 6.8 1.8 10.3.5.7 5.6 1.7 11.1 2.9 16.6.6 2.6 1.3 5.5 3.5 7s4.8-1.1 6.2-2.2c2.5 3.2 4 4.9 5.1 7.3.6 0 1.3-.1 1.9-.2z"/><circle class="st4" cx="469.5" cy="108.4" r="14.8"/><path class="st18" d="M439.9 30.6s-9.9 15.2-14.8 4.8c0 0-11.3 26.1-27 15-1.5-1.1-2.1-5.1-2.1-6.9 0 0 2.5 2.9 6.7 3.9 5.3 1.4 14.1-3.3 22.7-17.9-.1.1 5.7 8.8 14.5 1.1z"/><path class="st16" d="M439.9 30.6s-6.9 18.7 2.2 22.8c0 0 3.8 1.5 8.4-.9 0 0 1.2 14.6 4.1 21.2.7 1.7 2.3 3.1 4.1 3.5 2.1.4 4.7-.4 4.6-6.8 0 0-8.7 9.1-10.7-20.7 0-.1-15.4 6.5-12.7-19.1z"/><path class="st16" d="M469.5 49c3.6 1.3 13.3 4.1 14.4-4.8.8-6.8-14-11.8-21.1-14.4C466 24 475.5 22 472.4 15c-1.2-2.7-17.1 0-21.9 8.4-.1.2 8.3-6.3 10.4-6.4 1.9-.1 3.5 1.7 1.2 3.1-3.7 2.3-6.2 5-8.1 7.2-2.1 2.4-4.3 5.2-5.7 8.1 0 0 22.7.1 30.2 5.5 4.5 3.3 1.4 6.4-.2 6.8-4.5 1.1-12.3-2.4-19-4.7 0 0 10.2 11.2 10.2 20.5 0 0 0 6.3-7.1 1.6 0 0 1.5 5.2.6 8.8 2.6 4.1 4.2 8.9 4.5 13.8l.4 6 4.5.2c5-27.3-2.9-44.9-2.9-44.9z"/><path class="st16" d="M457.3 8.8c-.4-2.5-2-4.8-4.5-5.5-2.9-.9-5 1-6.7 2.9-4.1 4.6-3.9 11.5-3.6 12.3-7.6-8.4-14.2-14.7-24.2-18-7.4-2.4-14.2 5.1-10.9 12.2l.1.1c-9.7-1.8-19.6-5-29.5-6.5-5.5-.9-9.7 4.9-7.2 9.9-8.6.9-18.6 0-26.7 2.5-3.8 1.2-14.1 3.1-12.4 11.1.8 3.9 6.8 4.4 8.2 4.6-4.7 4.5-9.4 9.2-12.7 14.8-.8 1.4-1.5 2.8-2.1 4.3-2.7 6.8 4.7 13.2 11.1 9.5 1.2-.7 2.4-1.5 3.6-2.3-.8 2.5-4.7 11 4.5 9.8 4.8-.6 8.8-6 12.4-10.4-1.7 1.5-2 7.8.9 9.8 4.4 3.1 10.1-.2 12-1.6 9.8-7.2 15.2-16.3 24.9-22 0 .1-.1.3-.1.4-2.1 7.9 6.9 13.9 13.4 9.1 2.5-1.8 4.8-3.8 7-6-8.2 3.7-16.4 2.8-18.7-6.3-8.3 4.2-11.9 6.5-17.7 10.1-3.2 2-6.5 4.3-10.1 5.4-4.3 1.3-7.3-.6-6.6-4.7-4 2.7-11.8 7.2-17.2 7.1-1.4 0-2.1-1.7-.3-5.6-6.4 3.5-12.4 4.2-13.4-1.3-1.7-9.7 11.7-14.7 16.7-20.9-3.4-2.1-6.2-5.2-2.7-9.1 4.6-5.1 15.7-4.8 24.5-4.6 2.2.1 3.9-1.7 4-3.9.2-3.2 2.9-5.3 7.2-5.8 4.2-.4 8.2 1.1 12.2 2.2 5.5 1.5 10.9 2.6 16.4 3.1.9.1 1.6-.8 1.4-1.6-1-3.4-1.3-6.7 2.3-9.3 4-2.9 9.1-.5 12.7 1.8 4.7 3.1 8.5 7.1 12.8 10.7.9.8 3.5 3.7 5 3.3.3-.1 1.6-2.9 1.9-3.4 6.7-10.7 8.3-4.7 7.5-1.3-.3 1.1-1.9 6.5-2 7.6 2.2-3.4 7.2-10.2 6.6-14.5z"/><path class="st15" d="M419 74.6l-1.8-.5.3-.2c1.1-.6 1.6-2.1.9-3.2-.6-1.1-2.1-1.6-3.2-.9l-3.4 1.9c.7-.7.9-1.9.4-2.8-.6-1.1-2.1-1.6-3.2-.9l-4.6 2.5h-.1c.5-.7.6-1.7.2-2.5-.6-1.1-2.1-1.6-3.2-.9l-3.8 2.1c-.6.3-1 .8-1.2 1.5-.4 1.3.4 2.6 1.6 2.9l19.7 5.7c1.3.4 2.6-.4 2.9-1.6.4-1.4-.3-2.7-1.5-3.1zm-69 4.1l1.8-.2-.3-.2c-1-.8-1.2-2.3-.4-3.3.8-1 2.3-1.2 3.3-.4l3.1 2.4c-.6-.8-.6-2 0-2.8.8-1 2.3-1.2 3.3-.4l4.1 3.2h.1c-.4-.8-.4-1.8.2-2.5.8-1 2.3-1.2 3.3-.4l3.5 2.7c.5.4.9.9 1 1.6.2 1.3-.8 2.5-2.1 2.7l-20.4 2.6c-1.3.2-2.5-.8-2.7-2.1 0-1.6.9-2.8 2.2-2.9z"/><path class="st4" d="M373.6 125.3l-.6 13.9s31.2 1.5 34.1-1.3c0 0 4.1-3.8.9-8.1l-3.2 1.7-6.2 1-25-7.2z"/><path fill="#ddbca6" d="M375.3 90.5l-2.2 48.7 9.1.5V90.5z"/><path class="st20" d="M375.4 89.5l-2.3 50.1h30.4m0 0c3.2 0 5.9-2.6 5.9-5.9s-2.6-5.9-5.9-5.9c-2 0-3.8 1-4.9 2.6"/><path d="M375.4 90.3c0 16.4-13.3 29.8-29.8 29.8-16.4 0-29.8-13.3-29.8-29.8h59.6zm70.8 0c0 16.4-13.3 29.8-29.8 29.8-16.4 0-29.8-13.3-29.8-29.8h59.6z" opacity=".3" fill="#fff"/><path class="st20" d="M445.9 90.5c0 16.4-13.3 29.8-29.8 29.8-16.4 0-29.8-13.3-29.8-29.8h59.6zm-70.6 0c0 16.4-13.3 29.8-29.8 29.8-16.4 0-29.8-13.3-29.8-29.8h59.6z"/><path fill="none" stroke="#000" stroke-width="2.194" stroke-miterlimit="10" d="M315.8 90.5h130.1"/><path class="st24" d="M368.5 614.2h29.1v39.1h-68.2c0-21.6 17.5-39.1 39.1-39.1z"/><path fill="none" stroke="#c1252d" stroke-width="2.232" stroke-miterlimit="10" d="M397.6 643.2h-66.9"/><path class="st24" d="M367.5 615.5l2.7-19.1h-13.8v21.4c0 .1 4.7-2.2 11.1-2.3z"/><path class="st10" d="M415.6 618.7h29.1v39.1h-68.2c.1-21.6 17.5-39.1 39.1-39.1z"/><path fill="none" stroke="#e73f40" stroke-width="2.232" stroke-miterlimit="10" d="M444.7 647.7h-66.8"/><path class="st10" d="M413.1 619.5l2.7-19.1H402v21.4c0 .1 4.7-2.2 11.1-2.3z"/><path d="M470.6 101.6c3.2-.8 3.6 3.6 3.7 5.8.1 2 3.4 2.5 3.2.4-.1-2.5-.3-5-1.8-7.1-1.3-1.7-3.6-2.8-5.7-2.3-2 .5-1.4 3.7.6 3.2z" fill="#fce3d3"/><path class="st18" d="M408.4 15.5s-22.1-6-28-5.3c0 0-5.4-.5-7.2 4.6-1.1 3.3-3.6 5.2-7.1 4.9-.1 0-6.3 0-9.1.1-6.2.4-14.9 2.3-13.8 9.2 0 0 1 3.7 4.2 4.5 0 0-3.6-9.4 5.2-8.7 2.1.2 4.2.4 6.2.3 8.7-.3 28.1-1.7 22.6-8.2 0 .1-4.1-5.4 27-1.4z"/><ellipse class="st28" cx="425.5" cy="127.3" rx="12.1" ry="4.2"/><ellipse class="st28" cx="353.9" cy="127.3" rx="12.1" ry="4.2"/><path fill="none" stroke="#000" stroke-width="2.185" stroke-miterlimit="10" d="M445.6 94.3h22.5"/><path transform="rotate(126.305 520.016 89.49)" fill="#e8c728" d="M487.4 86.4h65.3v6.1h-65.3z"/><path transform="rotate(126.305 519.244 88.891)" fill="#f9da58" d="M486.6 87.9h65.2v2h-65.2z"/><path class="st14" d="M543.3 60.7l1.6-5-4.4 3.1"/><path fill="#ddba9e" d="M540.5 58.8l-3.6 2.6 4.9 3.6 1.5-4.3"/><path d="M496.2 116.8l2.1-2.8 4.9 3.6-2.1 2.8c-1 1.4-2.9 1.7-4.3.7-1.3-1.1-1.6-3-.6-4.3z" fill="#f08eac"/><path transform="rotate(-14.738 122.911 561.038)" class="st34" d="M38.6 506.2h168.6v109.6H38.6z"/><path transform="rotate(-14.738 122.911 561.038)" fill="#202020" d="M46.8 514.9H199v92.2H46.8z"/><path fill="#d8d8d8" d="M108.1 517.2l31 39.6-4.6-17.5 5.7 11.2-10.3-39 15.7 41.5 9.1-15-7.4 20.1 39.6-52.7-36.3 56.2 21.1-5.6-10.7 6.4 42.2 4.7-56-.7 27.3 28.7-21.8-19.5 6.3 10.3-15.7-17.7-5.4 36.6 2.4-42.1-53.5 55.5 47.7-56.3-23.7 15.3 22-18.8-96.2-15.5 95.3 12.1z"/><path fill="#616160" d="M298.5 598.2l-163 42.9-80.2-5.6 163.1-42.9z"/><path class="st34" d="M55.3 635.5l80.2 5.6 1.7 6.6-80.5-6.9z"/><path transform="rotate(-14.738 217.89 622.974)" class="st38" d="M133.6 619.5h168.6v6.9H133.6z"/><path class="st38" d="M210.5 615.2l-34.9 9.2-23-3.8 35-9.1z"/><path d="M387.6 145.8c-6.6 0-11.9 5.3-11.9 11.9v2.4h23.7v-2.4c0-6.6-5.3-11.9-11.8-11.9z"/><path class="st10" d="M397.7 151.5c-2.1-3.4-5.8-5.7-10.1-5.7s-8.1 2.3-10.1 5.7"/><path d="M382.8 160.1c0-2.6 2.1-4.7 4.7-4.7s4.7 2.1 4.7 4.7" fill="#ef4156"/></svg>