<svg xmlns="http://www.w3.org/2000/svg" viewBox="0 0 2041.32 2237.97"><defs><style>.cls-1{fill:#efd268;}.cls-2{fill:#2daaaa;}.cls-3{fill:#fb6b41;}.cls-4{font-size:173.58px;}.cls-4,.cls-5,.cls-6,.cls-7{fill:#353535;}.cls-4,.cls-6{font-family:GESSTwoBold-Bold, GESSTwoBold Bold;font-weight:700;}.cls-5{font-size:57.73px;}.cls-5,.cls-7{font-family:29LTBukra-Regular, 29LTBukra Regular;}.cls-6{font-size:132.2px;}.cls-7{font-size:43.97px;}</style></defs><title>شعار أكوا ويب</title><g id="عمودي"><g id="الأيقونة"><path class="cls-1" d="M2385.75,2314.92c33,0,59.77-27.26,59.77-60.88a61,61,0,0,0-30.94-53.33,58.91,58.91,0,0,0-71.7,10.93A61.23,61.23,0,0,0,2326,2254C2326,2287.66,2352.74,2314.92,2385.75,2314.92Z" transform="translate(-494.87 -274.71)"/><path class="cls-2" d="M2429.51,2357.82l0,0a108.82,108.82,0,0,1-43.81,9.17c-61.23,0-110.87-50.56-110.87-112.92a113.65,113.65,0,0,1,31.34-78.64c28.1-36.83,93.79-117.11-48.89-211.81,119.14,110-66.77,153.18-66.77,302.44,0,115.21,82.48,176.74,185.91,176.74,74.17,0,124.1-41.74,146.41-91.92C2472.8,2408.85,2429.51,2357.82,2429.51,2357.82Z" transform="translate(-494.87 -274.71)"/><path class="cls-3" d="M2522.89,2350.84a151.69,151.69,0,0,0,13.3-61.25c0-59.15-31.93-116.1-97-134.47a114.1,114.1,0,0,1,26.2,177.4l.11-.08C2492.72,2366.58,2522.78,2350.9,2522.89,2350.84Z" transform="translate(-494.87 -274.71)"/></g><g id="أكوى_ويب" data-name="أكوى ويب"><text class="cls-4" transform="translate(1187.96 2017.69)">بيو اوكأ</text><text class="cls-5" transform="translate(1175.55 2111.07)">www.aqweeb.com</text></g></g><g id="أفقي"><g id="الأيقونة-2" data-name="الأيقونة"><path class="cls-1" d="M643.53,2186.28c25.14,0,45.52-20.76,45.52-46.37a46.51,46.51,0,0,0-23.56-40.62,44.92,44.92,0,0,0-54.62,8.33A46.64,46.64,0,0,0,598,2139.91C598,2165.52,618.39,2186.28,643.53,2186.28Z" transform="translate(-494.87 -274.71)"/><path class="cls-2" d="M676.85,2219l0,0a82.8,82.8,0,0,1-33.36,7c-46.63,0-84.44-38.5-84.44-86A86.55,86.55,0,0,1,583,2080c21.4-28.05,71.43-89.19-37.24-161.31,90.74,83.76-50.85,116.66-50.85,230.33,0,87.75,62.82,134.61,141.59,134.61,56.49,0,94.51-31.8,111.51-70C709.82,2257.82,676.85,2219,676.85,2219Z" transform="translate(-494.87 -274.71)"/><path class="cls-3" d="M748,2213.64A115.6,115.6,0,0,0,758.1,2167c0-45-24.32-88.42-73.84-102.42a86.91,86.91,0,0,1,20,135.11l.08-.06C725,2225.62,747.88,2213.68,748,2213.64Z" transform="translate(-494.87 -274.71)"/></g><g id="أكوى_ويب-2" data-name="أكوى ويب"><text class="cls-6" transform="translate(58.09 2142.76)">بيو اوكأ</text><text class="cls-7" transform="translate(48.64 2213.88)">www.aqweeb.com</text></g></g><g id="الأيقونة-3" data-name="الأيقونة"><path class="cls-1" d="M1366.28,1046.71c72.54,0,131.34-59.9,131.34-133.78a134.12,134.12,0,0,0-68-117.19,129.48,129.48,0,0,0-157.56,24,134.57,134.57,0,0,0-37.13,93.16C1234.94,986.81,1293.74,1046.71,1366.28,1046.71Z" transform="translate(-494.87 -274.71)"/><path class="cls-2" d="M1462.44,1141l.11-.08a238.89,238.89,0,0,1-96.27,20.16c-134.55,0-243.62-111.09-243.62-248.13a249.63,249.63,0,0,1,68.87-172.8c61.74-80.93,206.09-257.35-107.45-465.42,261.8,241.66-146.72,336.6-146.72,664.56,0,253.17,181.24,388.38,408.52,388.38,163,0,272.7-91.74,321.73-202C1557.55,1253.12,1462.44,1141,1462.44,1141Z" transform="translate(-494.87 -274.71)"/><path class="cls-3" d="M1667.62,1125.65c19.33-43.48,29.24-89.84,29.24-134.6,0-130-70.17-255.11-213.07-295.49C1559,737.81,1609.9,819.3,1609.9,912.93a249.64,249.64,0,0,1-68.53,172.44l.23-.16C1601.33,1160.22,1667.37,1125.77,1667.62,1125.65Z" transform="translate(-494.87 -274.71)"/></g></svg>